<svg width="24" height="24" viewBox="0 0 24 24" fill="none" xmlns="http://www.w3.org/2000/svg">
<path d="M0.0082778 12.047C-0.00778372 5.47279 0.000245852 0.0727879 0.0261479 0.046985C0.0520499 0.0210695 1.51534 0 3.27804 0H4.48277C5.42557 0 5.89698 0 6.18987 0.292893C6.48277 0.585786 6.48277 1.05719 6.48277 2V12V22C6.48277 22.9428 6.48277 23.4142 6.18987 23.7071C5.89698 24 5.42558 24 4.48277 24H3.26017H2.03268C1.09198 24 0.62163 24 0.328886 23.708C0.0361419 23.4159 0.0349892 22.9456 0.0326836 22.0049L0.0082778 12.047Z" fill="white"/>
<path d="M10.0522 5.9698C10.0557 5.87335 10.9936 4.49059 12.1365 2.89724L13.616 0.834377C13.9094 0.425313 14.0561 0.22078 14.2711 0.11039C14.4862 0 14.7379 0 15.2413 0H18.04C20.1441 0 21.8645 0.0379718 21.8633 0.084507C21.8611 0.159099 20.1912 2.52823 15.3053 9.38828C14.5277 10.4801 13.866 11.3732 13.8349 11.373C13.7128 11.3718 10.046 6.13442 10.0522 5.9698Z" fill="white"/>
<path d="M9.96314 18.042C9.9464 17.9802 10.792 16.7328 11.8424 15.2703C12.8929 13.8077 13.8058 12.6288 13.8713 12.6506C13.9367 12.6723 14.5236 13.4474 15.1754 14.3732C16.6781 16.5068 21.1047 22.7572 21.6144 23.4648C21.7753 23.6881 21.6156 23.9998 21.3404 23.9997L18.0588 23.9984L15.1534 23.9972C14.6458 23.997 14.3919 23.9969 14.1757 23.8847C13.9595 23.7726 13.8131 23.5653 13.5203 23.1506L12.0557 21.0757C10.9216 19.4691 9.97999 18.104 9.96314 18.042Z" fill="white"/>
</svg>
